<?xml version="1.0" standalone="no"?>
<!DOCTYPE svg PUBLIC "-//W3C//DTD SVG 20010904//EN"
 "http://www.w3.org/TR/2001/REC-SVG-20010904/DTD/svg10.dtd">
<svg version="1.0" xmlns="http://www.w3.org/2000/svg"
 width="427.000000pt" height="427.000000pt" viewBox="0 0 427.000000 427.000000"
 preserveAspectRatio="xMidYMid meet">
<metadata>
Created by potrace 1.14, written by Peter Selinger 2001-2017
</metadata>
<g transform="translate(0.000000,427.000000) scale(0.100000,-0.100000)"
fill="#000000" stroke="none">
<path d="M0 3200 l0 -1070 84 0 83 0 7 -64 c16 -156 89 -246 199 -246 112 0
181 87 202 258 l7 52 144 0 144 0 0 -120 0 -120 -75 0 -75 0 0 -30 0 -30 180
0 180 0 0 30 0 30 -65 0 -65 0 0 120 0 120 119 0 118 0 7 -64 c16 -156 89
-246 199 -246 112 0 181 87 202 258 l7 52 48 0 47 0 7 -64 c16 -156 89 -246
199 -246 112 0 181 87 202 258 l7 52 48 0 47 0 7 -64 c16 -156 89 -246 199
-246 112 0 181 87 202 258 l7 52 48 0 47 0 7 -64 c16 -156 89 -246 199 -246
112 0 181 87 202 258 l7 52 48 0 47 0 7 -64 c16 -156 89 -246 199 -246 112 0
181 87 202 258 l7 52 139 0 139 0 0 -120 0 -120 -75 0 -75 0 0 -30 0 -30 180
0 180 0 0 30 0 30 -65 0 -65 0 0 120 0 120 135 0 135 0 0 1070 0 1070 -2135 0
-2135 0 0 -1070z m463 633 c39 -20 83 -85 98 -146 20 -75 17 -249 -4 -319 -61
-204 -292 -213 -363 -15 -36 99 -27 312 16 397 50 97 157 133 253 83z m1020 0
c39 -20 83 -85 98 -146 20 -75 17 -249 -4 -319 -61 -204 -292 -213 -363 -15
-36 99 -27 312 16 397 50 97 157 133 253 83z m1020 0 c39 -20 83 -85 98 -146
20 -75 17 -249 -4 -319 -61 -204 -292 -213 -363 -15 -36 99 -27 312 16 397 50
97 157 133 253 83z m510 0 c39 -20 83 -85 98 -146 20 -75 17 -249 -4 -319 -61
-204 -292 -213 -363 -15 -36 99 -27 312 16 397 50 97 157 133 253 83z m510 0
c39 -20 83 -85 98 -146 20 -75 17 -249 -4 -319 -61 -204 -292 -213 -363 -15
-36 99 -27 312 16 397 50 97 157 133 253 83z m500 0 c39 -20 83 -85 98 -146
20 -75 17 -249 -4 -319 -61 -204 -292 -213 -363 -15 -36 99 -27 312 16 397 50
97 157 133 253 83z m-3073 -268 l0 -285 65 0 65 0 0 -30 0 -30 -180 0 -180 0
0 30 0 30 75 0 75 0 0 241 0 241 -22 -14 c-13 -8 -44 -27 -70 -42 l-47 -27
-18 27 c-10 15 -13 29 -8 31 6 2 48 28 95 58 58 37 95 55 118 55 l32 0 0 -285z
m1020 0 l0 -285 65 0 65 0 0 -30 0 -30 -180 0 -180 0 0 30 0 30 75 0 75 0 0
241 0 241 -22 -14 c-13 -8 -44 -27 -70 -42 l-47 -27 -18 27 c-10 15 -13 29 -8
31 6 2 48 28 95 58 58 37 95 55 118 55 l32 0 0 -285z m-1507 -432 c39 -20 83
-85 98 -146 20 -75 17 -249 -4 -319 -61 -204 -292 -213 -363 -15 -36 99 -27
312 16 397 50 97 157 133 253 83z m1020 0 c39 -20 83 -85 98 -146 20 -75 17
-249 -4 -319 -61 -204 -292 -213 -363 -15 -36 99 -27 312 16 397 50 97 157
133 253 83z m510 0 c39 -20 83 -85 98 -146 20 -75 17 -249 -4 -319 -61 -204
-292 -213 -363 -15 -36 99 -27 312 16 397 50 97 157 133 253 83z m510 0 c39
-20 83 -85 98 -146 20 -75 17 -249 -4 -319 -61 -204 -292 -213 -363 -15 -36
99 -27 312 16 397 50 97 157 133 253 83z m1020 0 c39 -20 83 -85 98 -146 20
-75 17 -249 -4 -319 -61 -204 -292 -213 -363 -15 -36 99 -27 312 16 397 50 97
157 133 253 83z m-2573 -268 l0 -285 65 0 65 0 0 -30 0 -30 -180 0 -180 0 0
30 0 30 75 0 75 0 0 241 0 241 -22 -14 c-13 -8 -44 -27 -70 -42 l-47 -27 -18
27 c-10 15 -13 29 -8 31 6 2 48 28 95 58 58 37 95 55 118 55 l32 0 0 -285z
m2040 0 l0 -285 65 0 65 0 0 -30 0 -30 -180 0 -180 0 0 30 0 30 75 0 75 0 0
241 0 241 -22 -14 c-13 -8 -44 -27 -70 -42 l-47 -27 -18 27 c-10 15 -13 29 -8
31 6 2 48 28 95 58 58 37 95 55 118 55 l32 0 0 -285z m1010 0 l0 -285 65 0 65
0 0 -30 0 -30 -180 0 -180 0 0 30 0 30 75 0 75 0 0 241 0 241 -22 -14 c-13 -8
-44 -27 -70 -42 l-47 -27 -18 27 c-10 15 -13 29 -8 31 6 2 48 28 95 58 58 37
95 55 118 55 l32 0 0 -285z m-3538 -421 c61 -31 100 -112 113 -237 l7 -67 -40
0 -39 0 -7 63 c-15 137 -52 199 -118 199 -19 0 -45 -5 -56 -11 -33 -18 -63
-93 -69 -176 l-6 -75 -38 0 c-39 0 -39 0 -39 40 0 95 35 194 87 242 50 47 137
56 205 22z m1020 0 c61 -31 100 -112 113 -237 l7 -67 -40 0 -39 0 -7 63 c-15
137 -52 199 -118 199 -19 0 -45 -5 -56 -11 -33 -18 -63 -93 -69 -176 l-6 -75
-38 0 c-39 0 -39 0 -39 40 0 95 35 194 87 242 50 47 137 56 205 22z m510 0
c61 -31 100 -112 113 -237 l7 -67 -40 0 -39 0 -7 63 c-15 137 -52 199 -118
199 -19 0 -45 -5 -56 -11 -33 -18 -63 -93 -69 -176 l-6 -75 -38 0 c-39 0 -39
0 -39 40 0 95 35 194 87 242 50 47 137 56 205 22z m510 0 c61 -31 100 -112
113 -237 l7 -67 -40 0 -39 0 -7 63 c-15 137 -52 199 -118 199 -19 0 -45 -5
-56 -11 -33 -18 -63 -93 -69 -176 l-6 -75 -38 0 c-39 0 -39 0 -39 40 0 95 35
194 87 242 50 47 137 56 205 22z m510 0 c61 -31 100 -112 113 -237 l7 -67 -40
0 -39 0 -7 63 c-15 137 -52 199 -118 199 -19 0 -45 -5 -56 -11 -33 -18 -63
-93 -69 -176 l-6 -75 -38 0 c-39 0 -39 0 -39 40 0 95 35 194 87 242 50 47 137
56 205 22z m510 0 c61 -31 100 -112 113 -237 l7 -67 -40 0 -39 0 -7 63 c-15
137 -52 199 -118 199 -19 0 -45 -5 -56 -11 -33 -18 -63 -93 -69 -176 l-6 -75
-38 0 c-39 0 -39 0 -39 40 0 95 35 194 87 242 50 47 137 56 205 22z m-2572
-144 l0 -160 -40 0 -39 0 -3 114 -3 114 -65 -39 -65 -39 -17 21 c-10 12 -18
24 -18 28 1 3 42 32 93 63 61 38 103 57 125 58 l32 0 0 -160z m3050 0 l0 -160
-40 0 -39 0 -3 114 -3 114 -65 -39 -65 -39 -17 21 c-10 12 -18 24 -18 28 1 3
42 32 93 63 61 38 103 57 125 58 l32 0 0 -160z m-3586 -116 c32 -32 20 -44
-44 -44 -62 0 -68 8 -37 48 13 17 62 15 81 -4z m1020 0 c32 -32 20 -44 -44
-44 -62 0 -68 8 -37 48 13 17 62 15 81 -4z m510 0 c32 -32 20 -44 -44 -44 -62
0 -68 8 -37 48 13 17 62 15 81 -4z m510 0 c32 -32 20 -44 -44 -44 -62 0 -68 8
-37 48 13 17 62 15 81 -4z m510 0 c32 -32 20 -44 -44 -44 -62 0 -68 8 -37 48
13 17 62 15 81 -4z m510 0 c32 -32 20 -44 -44 -44 -62 0 -68 8 -37 48 13 17
62 15 81 -4z m-3145 -75 c10 -13 29 -21 46 -21 17 0 36 8 46 21 22 27 79 30
79 3 0 -36 -22 -137 -36 -167 -20 -43 -67 -69 -108 -61 -58 11 -93 72 -103
182 l-6 64 32 0 c21 0 39 -8 50 -21z m1020 0 c10 -13 29 -21 46 -21 17 0 36 8
46 21 22 27 79 30 79 3 0 -36 -22 -137 -36 -167 -20 -43 -67 -69 -108 -61 -58
11 -93 72 -103 182 l-6 64 32 0 c21 0 39 -8 50 -21z m510 0 c10 -13 29 -21 46
-21 17 0 36 8 46 21 22 27 79 30 79 3 0 -36 -22 -137 -36 -167 -20 -43 -67
-69 -108 -61 -58 11 -93 72 -103 182 l-6 64 32 0 c21 0 39 -8 50 -21z m510 0
c10 -13 29 -21 46 -21 17 0 36 8 46 21 22 27 79 30 79 3 0 -36 -22 -137 -36
-167 -20 -43 -67 -69 -108 -61 -58 11 -93 72 -103 182 l-6 64 32 0 c21 0 39
-8 50 -21z m510 0 c10 -13 29 -21 46 -21 17 0 36 8 46 21 22 27 79 30 79 3 0
-36 -22 -137 -36 -167 -20 -43 -67 -69 -108 -61 -58 11 -93 72 -103 182 l-6
64 32 0 c21 0 39 -8 50 -21z m510 0 c10 -13 29 -21 46 -21 17 0 36 8 46 21 22
27 79 30 79 3 0 -36 -22 -137 -36 -167 -20 -43 -67 -69 -108 -61 -58 11 -93
72 -103 182 l-6 64 32 0 c21 0 39 -8 50 -21z"/>
<path d="M339 3786 c-55 -18 -82 -84 -87 -215 -7 -175 26 -274 97 -295 43 -12
94 13 115 58 37 78 44 254 16 358 -14 47 -53 94 -84 100 -13 3 -39 0 -57 -6z
m75 -212 c20 -20 21 -68 1 -84 -21 -17 -64 -16 -82 3 -19 18 -20 61 -3 82 16
20 64 19 84 -1z"/>
<path d="M1359 3786 c-55 -18 -82 -84 -87 -215 -7 -175 26 -274 97 -295 43
-12 94 13 115 58 37 78 44 254 16 358 -14 47 -53 94 -84 100 -13 3 -39 0 -57
-6z m75 -212 c20 -20 21 -68 1 -84 -21 -17 -64 -16 -82 3 -19 18 -20 61 -3 82
16 20 64 19 84 -1z"/>
<path d="M2379 3786 c-55 -18 -82 -84 -87 -215 -7 -175 26 -274 97 -295 43
-12 94 13 115 58 37 78 44 254 16 358 -14 47 -53 94 -84 100 -13 3 -39 0 -57
-6z m75 -212 c20 -20 21 -68 1 -84 -21 -17 -64 -16 -82 3 -19 18 -20 61 -3 82
16 20 64 19 84 -1z"/>
<path d="M2889 3786 c-55 -18 -82 -84 -87 -215 -7 -175 26 -274 97 -295 43
-12 94 13 115 58 37 78 44 254 16 358 -14 47 -53 94 -84 100 -13 3 -39 0 -57
-6z m75 -212 c20 -20 21 -68 1 -84 -21 -17 -64 -16 -82 3 -19 18 -20 61 -3 82
16 20 64 19 84 -1z"/>
<path d="M3399 3786 c-55 -18 -82 -84 -87 -215 -7 -175 26 -274 97 -295 43
-12 94 13 115 58 37 78 44 254 16 358 -14 47 -53 94 -84 100 -13 3 -39 0 -57
-6z m75 -212 c20 -20 21 -68 1 -84 -21 -17 -64 -16 -82 3 -19 18 -20 61 -3 82
16 20 64 19 84 -1z"/>
<path d="M3899 3786 c-55 -18 -82 -84 -87 -215 -7 -175 26 -274 97 -295 43
-12 94 13 115 58 37 78 44 254 16 358 -14 47 -53 94 -84 100 -13 3 -39 0 -57
-6z m75 -212 c20 -20 21 -68 1 -84 -21 -17 -64 -16 -82 3 -19 18 -20 61 -3 82
16 20 64 19 84 -1z"/>
<path d="M339 3086 c-55 -18 -82 -84 -87 -215 -7 -175 26 -274 97 -295 43 -12
94 13 115 58 37 78 44 254 16 358 -14 47 -53 94 -84 100 -13 3 -39 0 -57 -6z
m75 -212 c20 -20 21 -68 1 -84 -21 -17 -64 -16 -82 3 -19 18 -20 61 -3 82 16
20 64 19 84 -1z"/>
<path d="M1359 3086 c-55 -18 -82 -84 -87 -215 -7 -175 26 -274 97 -295 43
-12 94 13 115 58 37 78 44 254 16 358 -14 47 -53 94 -84 100 -13 3 -39 0 -57
-6z m75 -212 c20 -20 21 -68 1 -84 -21 -17 -64 -16 -82 3 -19 18 -20 61 -3 82
16 20 64 19 84 -1z"/>
<path d="M1869 3086 c-55 -18 -82 -84 -87 -215 -7 -175 26 -274 97 -295 43
-12 94 13 115 58 37 78 44 254 16 358 -14 47 -53 94 -84 100 -13 3 -39 0 -57
-6z m75 -212 c20 -20 21 -68 1 -84 -21 -17 -64 -16 -82 3 -19 18 -20 61 -3 82
16 20 64 19 84 -1z"/>
<path d="M2379 3086 c-55 -18 -82 -84 -87 -215 -7 -175 26 -274 97 -295 43
-12 94 13 115 58 37 78 44 254 16 358 -14 47 -53 94 -84 100 -13 3 -39 0 -57
-6z m75 -212 c20 -20 21 -68 1 -84 -21 -17 -64 -16 -82 3 -19 18 -20 61 -3 82
16 20 64 19 84 -1z"/>
<path d="M3399 3086 c-55 -18 -82 -84 -87 -215 -7 -175 26 -274 97 -295 43
-12 94 13 115 58 37 78 44 254 16 358 -14 47 -53 94 -84 100 -13 3 -39 0 -57
-6z m75 -212 c20 -20 21 -68 1 -84 -21 -17 -64 -16 -82 3 -19 18 -20 61 -3 82
16 20 64 19 84 -1z"/>
<path d="M320 1759 c-104 -31 -159 -162 -147 -357 8 -149 44 -224 122 -262
110 -53 222 6 262 138 21 70 24 244 4 319 -15 61 -59 126 -98 146 -40 21 -102
27 -143 16z m125 -90 c30 -36 43 -82 51 -180 7 -82 -8 -193 -32 -245 -21 -45
-72 -70 -115 -58 -71 21 -104 120 -97 295 4 89 9 116 29 156 39 76 114 90 164
32z"/>
<path d="M330 1485 c-17 -21 -16 -64 3 -82 18 -19 61 -20 82 -3 20 16 19 64
-1 84 -20 20 -68 21 -84 1z"/>
<path d="M1340 1759 c-104 -31 -159 -162 -147 -357 8 -149 44 -224 122 -262
110 -53 222 6 262 138 21 70 24 244 4 319 -15 61 -59 126 -98 146 -40 21 -102
27 -143 16z m125 -90 c30 -36 43 -82 51 -180 7 -82 -8 -193 -32 -245 -21 -45
-72 -70 -115 -58 -71 21 -104 120 -97 295 4 89 9 116 29 156 39 76 114 90 164
32z"/>
<path d="M1350 1485 c-17 -21 -16 -64 3 -82 18 -19 61 -20 82 -3 20 16 19 64
-1 84 -20 20 -68 21 -84 1z"/>
<path d="M1850 1759 c-104 -31 -159 -162 -147 -357 8 -149 44 -224 122 -262
110 -53 222 6 262 138 21 70 24 244 4 319 -15 61 -59 126 -98 146 -40 21 -102
27 -143 16z m125 -90 c30 -36 43 -82 51 -180 7 -82 -8 -193 -32 -245 -21 -45
-72 -70 -115 -58 -71 21 -104 120 -97 295 4 89 9 116 29 156 39 76 114 90 164
32z"/>
<path d="M1860 1485 c-17 -21 -16 -64 3 -82 18 -19 61 -20 82 -3 20 16 19 64
-1 84 -20 20 -68 21 -84 1z"/>
<path d="M2360 1759 c-104 -31 -159 -162 -147 -357 8 -149 44 -224 122 -262
110 -53 222 6 262 138 21 70 24 244 4 319 -15 61 -59 126 -98 146 -40 21 -102
27 -143 16z m125 -90 c30 -36 43 -82 51 -180 7 -82 -8 -193 -32 -245 -21 -45
-72 -70 -115 -58 -71 21 -104 120 -97 295 4 89 9 116 29 156 39 76 114 90 164
32z"/>
<path d="M2370 1485 c-17 -21 -16 -64 3 -82 18 -19 61 -20 82 -3 20 16 19 64
-1 84 -20 20 -68 21 -84 1z"/>
<path d="M2870 1759 c-104 -31 -159 -162 -147 -357 8 -149 44 -224 122 -262
110 -53 222 6 262 138 21 70 24 244 4 319 -15 61 -59 126 -98 146 -40 21 -102
27 -143 16z m125 -90 c30 -36 43 -82 51 -180 7 -82 -8 -193 -32 -245 -21 -45
-72 -70 -115 -58 -71 21 -104 120 -97 295 4 89 9 116 29 156 39 76 114 90 164
32z"/>
<path d="M2880 1485 c-17 -21 -16 -64 3 -82 18 -19 61 -20 82 -3 20 16 19 64
-1 84 -20 20 -68 21 -84 1z"/>
<path d="M800 1705 c-47 -30 -89 -56 -95 -58 -5 -2 -2 -16 8 -31 l18 -27 47
27 c26 15 57 34 70 42 l22 14 0 -241 0 -241 -75 0 -75 0 0 -30 0 -30 180 0
180 0 0 30 0 30 -65 0 -65 0 0 285 0 285 -32 0 c-23 0 -60 -18 -118 -55z"/>
<path d="M3350 1705 c-47 -30 -89 -56 -95 -58 -5 -2 -2 -16 8 -31 l18 -27 47
27 c26 15 57 34 70 42 l22 14 0 -241 0 -241 -75 0 -75 0 0 -30 0 -30 180 0
180 0 0 30 0 30 -65 0 -65 0 0 285 0 285 -32 0 c-23 0 -60 -18 -118 -55z"/>
<path d="M3850 1705 c-47 -30 -89 -56 -95 -58 -5 -2 -2 -16 8 -31 l18 -27 47
27 c26 15 57 34 70 42 l22 14 0 -241 0 -241 -75 0 -75 0 0 -30 0 -30 180 0
180 0 0 30 0 30 -65 0 -65 0 0 285 0 285 -32 0 c-23 0 -60 -18 -118 -55z"/>
<path d="M320 1059 c-104 -31 -159 -162 -147 -357 8 -149 44 -224 122 -262
110 -53 222 6 262 138 21 70 24 244 4 319 -15 61 -59 126 -98 146 -40 21 -102
27 -143 16z m125 -90 c30 -36 43 -82 51 -180 7 -82 -8 -193 -32 -245 -21 -45
-72 -70 -115 -58 -71 21 -104 120 -97 295 4 89 9 116 29 156 39 76 114 90 164
32z"/>
<path d="M330 785 c-17 -21 -16 -64 3 -82 18 -19 61 -20 82 -3 20 16 19 64 -1
84 -20 20 -68 21 -84 1z"/>
<path d="M1340 1059 c-104 -31 -159 -162 -147 -357 8 -149 44 -224 122 -262
110 -53 222 6 262 138 21 70 24 244 4 319 -15 61 -59 126 -98 146 -40 21 -102
27 -143 16z m125 -90 c30 -36 43 -82 51 -180 7 -82 -8 -193 -32 -245 -21 -45
-72 -70 -115 -58 -71 21 -104 120 -97 295 4 89 9 116 29 156 39 76 114 90 164
32z"/>
<path d="M1350 785 c-17 -21 -16 -64 3 -82 18 -19 61 -20 82 -3 20 16 19 64
-1 84 -20 20 -68 21 -84 1z"/>
<path d="M1850 1059 c-104 -31 -159 -162 -147 -357 8 -149 44 -224 122 -262
110 -53 222 6 262 138 21 70 24 244 4 319 -15 61 -59 126 -98 146 -40 21 -102
27 -143 16z m125 -90 c30 -36 43 -82 51 -180 7 -82 -8 -193 -32 -245 -21 -45
-72 -70 -115 -58 -71 21 -104 120 -97 295 4 89 9 116 29 156 39 76 114 90 164
32z"/>
<path d="M1860 785 c-17 -21 -16 -64 3 -82 18 -19 61 -20 82 -3 20 16 19 64
-1 84 -20 20 -68 21 -84 1z"/>
<path d="M2360 1059 c-104 -31 -159 -162 -147 -357 8 -149 44 -224 122 -262
110 -53 222 6 262 138 21 70 24 244 4 319 -15 61 -59 126 -98 146 -40 21 -102
27 -143 16z m125 -90 c30 -36 43 -82 51 -180 7 -82 -8 -193 -32 -245 -21 -45
-72 -70 -115 -58 -71 21 -104 120 -97 295 4 89 9 116 29 156 39 76 114 90 164
32z"/>
<path d="M2370 785 c-17 -21 -16 -64 3 -82 18 -19 61 -20 82 -3 20 16 19 64
-1 84 -20 20 -68 21 -84 1z"/>
<path d="M3380 1059 c-104 -31 -159 -162 -147 -357 8 -149 44 -224 122 -262
110 -53 222 6 262 138 21 70 24 244 4 319 -15 61 -59 126 -98 146 -40 21 -102
27 -143 16z m125 -90 c30 -36 43 -82 51 -180 7 -82 -8 -193 -32 -245 -21 -45
-72 -70 -115 -58 -71 21 -104 120 -97 295 4 89 9 116 29 156 39 76 114 90 164
32z"/>
<path d="M3390 785 c-17 -21 -16 -64 3 -82 18 -19 61 -20 82 -3 20 16 19 64
-1 84 -20 20 -68 21 -84 1z"/>
<path d="M800 1005 c-47 -30 -89 -56 -95 -58 -5 -2 -2 -16 8 -31 l18 -27 47
27 c26 15 57 34 70 42 l22 14 0 -241 0 -241 -75 0 -75 0 0 -30 0 -30 180 0
180 0 0 30 0 30 -65 0 -65 0 0 285 0 285 -32 0 c-23 0 -60 -18 -118 -55z"/>
<path d="M2840 1005 c-47 -30 -89 -56 -95 -58 -5 -2 -2 -16 8 -31 l18 -27 47
27 c26 15 57 34 70 42 l22 14 0 -241 0 -241 -75 0 -75 0 0 -30 0 -30 180 0
180 0 0 30 0 30 -65 0 -65 0 0 285 0 285 -32 0 c-23 0 -60 -18 -118 -55z"/>
<path d="M3850 1005 c-47 -30 -89 -56 -95 -58 -5 -2 -2 -16 8 -31 l18 -27 47
27 c26 15 57 34 70 42 l22 14 0 -241 0 -241 -75 0 -75 0 0 -30 0 -30 180 0
180 0 0 30 0 30 -65 0 -65 0 0 285 0 285 -32 0 c-23 0 -60 -18 -118 -55z"/>
</g>
</svg>
